# xmcd
#
# Track frame offsets: 
#        150
#        16405
#        36863
#        58413
#        78186
#        93064
#        106652
#        148557
#
# Disc length: 2135 seconds
#
# Revision: 0
# Processed by: cddbd v1.5.2PL0 Copyright (c) Steve Scherf et al.
# Submitted via: ExactAudioCopy v0.95b3
#
DISCID=5a085508
DTITLE=Elf  - Trying To Burn The Sun  Flac
DYEAR=1900
DGENRE=
TTITLE0=Black Swampy Water
TTITLE1=Prentice Wood
TTITLE2=When She Smiles
TTITLE3=Good Time Music
TTITLE4=Liberty Road
TTITLE5=Shotgun Boogie
TTITLE6=Wonderworld
TTITLE7=Streetwalker
EXTD=
EXTT0=
EXTT1=
EXTT2=
EXTT3=
EXTT4=
EXTT5=
EXTT6=
EXTT7=
PLAYORDER=
